<mxfile host="app.diagrams.net" modified="2023-11-02T01:28:40.196Z" agent="Mozilla/5.0 (Windows NT 10.0; Win64; x64; rv:109.0) Gecko/20100101 Firefox/119.0" etag="N2PjbivOidQIDigckwx9" version="22.0.8" type="github">
  <diagram id="C5RBs43oDa-KdzZeNtuy" name="Page-1">
    <mxGraphModel dx="794" dy="422" grid="1" gridSize="10" guides="1" tooltips="1" connect="1" arrows="1" fold="1" page="1" pageScale="1" pageWidth="827" pageHeight="1169" math="0" shadow="0">
      <root>
        <mxCell id="WIyWlLk6GJQsqaUBKTNV-0" />
        <mxCell id="WIyWlLk6GJQsqaUBKTNV-1" parent="WIyWlLk6GJQsqaUBKTNV-0" />
        <mxCell id="YK4nMq_De4gkF8zwXS72-4" value="" style="edgeStyle=orthogonalEdgeStyle;rounded=0;orthogonalLoop=1;jettySize=auto;html=1;" edge="1" parent="WIyWlLk6GJQsqaUBKTNV-1" source="YK4nMq_De4gkF8zwXS72-0">
          <mxGeometry relative="1" as="geometry">
            <mxPoint x="414" y="250" as="targetPoint" />
          </mxGeometry>
        </mxCell>
        <mxCell id="YK4nMq_De4gkF8zwXS72-0" value="start" style="strokeWidth=2;html=1;shape=mxgraph.flowchart.terminator;whiteSpace=wrap;" vertex="1" parent="WIyWlLk6GJQsqaUBKTNV-1">
          <mxGeometry x="369" y="150" width="90" height="40" as="geometry" />
        </mxCell>
        <mxCell id="YK4nMq_De4gkF8zwXS72-11" value="finish" style="strokeWidth=2;html=1;shape=mxgraph.flowchart.terminator;whiteSpace=wrap;" vertex="1" parent="WIyWlLk6GJQsqaUBKTNV-1">
          <mxGeometry x="369" y="660" width="90" height="40" as="geometry" />
        </mxCell>
        <mxCell id="YK4nMq_De4gkF8zwXS72-15" value="" style="edgeStyle=orthogonalEdgeStyle;rounded=0;orthogonalLoop=1;jettySize=auto;html=1;" edge="1" parent="WIyWlLk6GJQsqaUBKTNV-1" source="YK4nMq_De4gkF8zwXS72-13" target="YK4nMq_De4gkF8zwXS72-14">
          <mxGeometry relative="1" as="geometry" />
        </mxCell>
        <mxCell id="YK4nMq_De4gkF8zwXS72-13" value="masukan bilangan" style="shape=parallelogram;perimeter=parallelogramPerimeter;whiteSpace=wrap;html=1;fixedSize=1;" vertex="1" parent="WIyWlLk6GJQsqaUBKTNV-1">
          <mxGeometry x="354" y="250" width="120" height="40" as="geometry" />
        </mxCell>
        <mxCell id="YK4nMq_De4gkF8zwXS72-17" value="" style="edgeStyle=orthogonalEdgeStyle;rounded=0;orthogonalLoop=1;jettySize=auto;html=1;" edge="1" parent="WIyWlLk6GJQsqaUBKTNV-1" source="YK4nMq_De4gkF8zwXS72-14" target="YK4nMq_De4gkF8zwXS72-16">
          <mxGeometry relative="1" as="geometry" />
        </mxCell>
        <mxCell id="YK4nMq_De4gkF8zwXS72-14" value="bilangan dibagi dua" style="rounded=0;whiteSpace=wrap;html=1;" vertex="1" parent="WIyWlLk6GJQsqaUBKTNV-1">
          <mxGeometry x="354" y="330" width="120" height="50" as="geometry" />
        </mxCell>
        <mxCell id="YK4nMq_De4gkF8zwXS72-19" value="" style="edgeStyle=orthogonalEdgeStyle;rounded=0;orthogonalLoop=1;jettySize=auto;html=1;" edge="1" parent="WIyWlLk6GJQsqaUBKTNV-1" source="YK4nMq_De4gkF8zwXS72-16" target="YK4nMq_De4gkF8zwXS72-18">
          <mxGeometry relative="1" as="geometry" />
        </mxCell>
        <mxCell id="YK4nMq_De4gkF8zwXS72-22" value="" style="edgeStyle=orthogonalEdgeStyle;rounded=0;orthogonalLoop=1;jettySize=auto;html=1;" edge="1" parent="WIyWlLk6GJQsqaUBKTNV-1" source="YK4nMq_De4gkF8zwXS72-16" target="YK4nMq_De4gkF8zwXS72-21">
          <mxGeometry relative="1" as="geometry" />
        </mxCell>
        <mxCell id="YK4nMq_De4gkF8zwXS72-16" value="sisa=?" style="rhombus;whiteSpace=wrap;html=1;" vertex="1" parent="WIyWlLk6GJQsqaUBKTNV-1">
          <mxGeometry x="376" y="420" width="76" height="70" as="geometry" />
        </mxCell>
        <mxCell id="YK4nMq_De4gkF8zwXS72-18" value="bilangan genap" style="shape=parallelogram;perimeter=parallelogramPerimeter;whiteSpace=wrap;html=1;fixedSize=1;" vertex="1" parent="WIyWlLk6GJQsqaUBKTNV-1">
          <mxGeometry x="540" y="435" width="120" height="40" as="geometry" />
        </mxCell>
        <mxCell id="YK4nMq_De4gkF8zwXS72-20" value="ya" style="text;html=1;align=center;verticalAlign=middle;resizable=0;points=[];autosize=1;strokeColor=none;fillColor=none;" vertex="1" parent="WIyWlLk6GJQsqaUBKTNV-1">
          <mxGeometry x="470" y="418" width="40" height="30" as="geometry" />
        </mxCell>
        <mxCell id="YK4nMq_De4gkF8zwXS72-23" value="" style="edgeStyle=orthogonalEdgeStyle;rounded=0;orthogonalLoop=1;jettySize=auto;html=1;" edge="1" parent="WIyWlLk6GJQsqaUBKTNV-1" source="YK4nMq_De4gkF8zwXS72-21" target="YK4nMq_De4gkF8zwXS72-11">
          <mxGeometry relative="1" as="geometry" />
        </mxCell>
        <mxCell id="YK4nMq_De4gkF8zwXS72-21" value="bilangan ganjil" style="shape=parallelogram;perimeter=parallelogramPerimeter;whiteSpace=wrap;html=1;fixedSize=1;" vertex="1" parent="WIyWlLk6GJQsqaUBKTNV-1">
          <mxGeometry x="354" y="540" width="120" height="45" as="geometry" />
        </mxCell>
        <mxCell id="YK4nMq_De4gkF8zwXS72-24" value="" style="endArrow=classic;startArrow=classic;html=1;rounded=0;exitX=1;exitY=0.5;exitDx=0;exitDy=0;exitPerimeter=0;" edge="1" parent="WIyWlLk6GJQsqaUBKTNV-1" source="YK4nMq_De4gkF8zwXS72-11">
          <mxGeometry width="50" height="50" relative="1" as="geometry">
            <mxPoint x="380" y="590" as="sourcePoint" />
            <mxPoint x="600" y="480" as="targetPoint" />
            <Array as="points">
              <mxPoint x="600" y="680" />
            </Array>
          </mxGeometry>
        </mxCell>
        <mxCell id="YK4nMq_De4gkF8zwXS72-27" value="tidak" style="text;html=1;align=center;verticalAlign=middle;resizable=0;points=[];autosize=1;strokeColor=none;fillColor=none;" vertex="1" parent="WIyWlLk6GJQsqaUBKTNV-1">
          <mxGeometry x="365" y="498" width="50" height="30" as="geometry" />
        </mxCell>
      </root>
    </mxGraphModel>
  </diagram>
</mxfile>
